<mxfile host="app.diagrams.net" modified="2024-02-05T15:42:19.282Z" agent="Mozilla/5.0 (Windows NT 10.0; Win64; x64) AppleWebKit/537.36 (KHTML, like Gecko) Chrome/121.0.0.0 Safari/537.36" etag="f2ry3YzmkQUWikbPBOY_" version="23.1.1" type="device">
  <diagram name="Page-1" id="drMt2SyrU1ceA8h74UhF">
    <mxGraphModel dx="1434" dy="738" grid="1" gridSize="10" guides="1" tooltips="1" connect="1" arrows="1" fold="1" page="1" pageScale="1" pageWidth="827" pageHeight="1169" math="0" shadow="0">
      <root>
        <mxCell id="0" />
        <mxCell id="1" parent="0" />
        <mxCell id="4f5Nt68GjwvBEmgDLU7Z-1" value="VPC" style="sketch=0;outlineConnect=0;html=1;whiteSpace=wrap;fontSize=12;fontStyle=0;shape=mxgraph.aws4.group;grIcon=mxgraph.aws4.group_vpc;strokeColor=#82b366;fillColor=none;verticalAlign=top;align=left;spacingLeft=30;dashed=0;gradientColor=default;" vertex="1" parent="1">
          <mxGeometry x="80" y="200" width="680" height="520" as="geometry" />
        </mxCell>
        <mxCell id="4f5Nt68GjwvBEmgDLU7Z-2" value="AZ us-east-2a" style="fillColor=none;strokeColor=#147EBA;dashed=1;verticalAlign=top;fontStyle=0;fontColor=#147EBA;whiteSpace=wrap;html=1;" vertex="1" parent="1">
          <mxGeometry x="90" y="240" width="282" height="472" as="geometry" />
        </mxCell>
        <mxCell id="4f5Nt68GjwvBEmgDLU7Z-5" value="" style="sketch=0;outlineConnect=0;fontColor=#232F3E;gradientColor=none;fillColor=#8C4FFF;strokeColor=none;dashed=0;verticalLabelPosition=bottom;verticalAlign=top;align=center;html=1;fontSize=12;fontStyle=0;aspect=fixed;pointerEvents=1;shape=mxgraph.aws4.internet_gateway;" vertex="1" parent="1">
          <mxGeometry x="404.5" y="180" width="31" height="31" as="geometry" />
        </mxCell>
        <mxCell id="4f5Nt68GjwvBEmgDLU7Z-9" value="" style="sketch=0;points=[[0,0,0],[0.25,0,0],[0.5,0,0],[0.75,0,0],[1,0,0],[0,1,0],[0.25,1,0],[0.5,1,0],[0.75,1,0],[1,1,0],[0,0.25,0],[0,0.5,0],[0,0.75,0],[1,0.25,0],[1,0.5,0],[1,0.75,0]];outlineConnect=0;fontColor=#232F3E;fillColor=#ED7100;strokeColor=#ffffff;dashed=0;verticalLabelPosition=bottom;verticalAlign=top;align=center;html=1;fontSize=12;fontStyle=0;aspect=fixed;shape=mxgraph.aws4.resourceIcon;resIcon=mxgraph.aws4.eks;" vertex="1" parent="1">
          <mxGeometry x="403.5" y="544.5" width="33" height="33" as="geometry" />
        </mxCell>
        <mxCell id="4f5Nt68GjwvBEmgDLU7Z-10" value="&lt;font style=&quot;font-size: 11px;&quot;&gt;EKS&lt;/font&gt;" style="text;html=1;align=center;verticalAlign=middle;resizable=0;points=[];autosize=1;strokeColor=none;fillColor=none;" vertex="1" parent="1">
          <mxGeometry x="395" y="577.5" width="50" height="30" as="geometry" />
        </mxCell>
        <mxCell id="4f5Nt68GjwvBEmgDLU7Z-11" value="Public subnet" style="points=[[0,0],[0.25,0],[0.5,0],[0.75,0],[1,0],[1,0.25],[1,0.5],[1,0.75],[1,1],[0.75,1],[0.5,1],[0.25,1],[0,1],[0,0.75],[0,0.5],[0,0.25]];outlineConnect=0;gradientColor=none;html=1;whiteSpace=wrap;fontSize=12;fontStyle=0;container=1;pointerEvents=0;collapsible=0;recursiveResize=0;shape=mxgraph.aws4.group;grIcon=mxgraph.aws4.group_security_group;grStroke=0;strokeColor=#7AA116;fillColor=#F2F6E8;verticalAlign=top;align=left;spacingLeft=30;fontColor=#248814;dashed=0;" vertex="1" parent="1">
          <mxGeometry x="100" y="268" width="260" height="130" as="geometry" />
        </mxCell>
        <mxCell id="4f5Nt68GjwvBEmgDLU7Z-12" value="NAT gateway" style="sketch=0;outlineConnect=0;fontColor=#232F3E;gradientColor=none;strokeColor=#232F3E;fillColor=#ffffff;dashed=0;verticalLabelPosition=bottom;verticalAlign=top;align=center;html=1;fontSize=12;fontStyle=0;aspect=fixed;shape=mxgraph.aws4.resourceIcon;resIcon=mxgraph.aws4.nat_gateway;" vertex="1" parent="4f5Nt68GjwvBEmgDLU7Z-11">
          <mxGeometry x="100" y="50" width="50" height="50" as="geometry" />
        </mxCell>
        <mxCell id="4f5Nt68GjwvBEmgDLU7Z-13" value="" style="outlineConnect=0;dashed=0;verticalLabelPosition=bottom;verticalAlign=top;align=center;html=1;shape=mxgraph.aws3.route_table;fillColor=#F58536;gradientColor=none;" vertex="1" parent="4f5Nt68GjwvBEmgDLU7Z-11">
          <mxGeometry x="10" y="50" width="40" height="38" as="geometry" />
        </mxCell>
        <mxCell id="4f5Nt68GjwvBEmgDLU7Z-14" value="Private subnet" style="points=[[0,0],[0.25,0],[0.5,0],[0.75,0],[1,0],[1,0.25],[1,0.5],[1,0.75],[1,1],[0.75,1],[0.5,1],[0.25,1],[0,1],[0,0.75],[0,0.5],[0,0.25]];outlineConnect=0;gradientColor=none;html=1;whiteSpace=wrap;fontSize=12;fontStyle=0;container=1;pointerEvents=0;collapsible=0;recursiveResize=0;shape=mxgraph.aws4.group;grIcon=mxgraph.aws4.group_security_group;grStroke=0;strokeColor=#00A4A6;fillColor=#E6F6F7;verticalAlign=top;align=left;spacingLeft=30;fontColor=#147EBA;dashed=0;" vertex="1" parent="1">
          <mxGeometry x="100" y="420" width="260" height="290" as="geometry" />
        </mxCell>
        <mxCell id="4f5Nt68GjwvBEmgDLU7Z-18" value="" style="outlineConnect=0;dashed=0;verticalLabelPosition=bottom;verticalAlign=top;align=center;html=1;shape=mxgraph.aws3.route_table;fillColor=#F58536;gradientColor=none;" vertex="1" parent="4f5Nt68GjwvBEmgDLU7Z-14">
          <mxGeometry x="210" width="40" height="38" as="geometry" />
        </mxCell>
        <mxCell id="4f5Nt68GjwvBEmgDLU7Z-33" value="" style="sketch=0;points=[[0,0,0],[0.25,0,0],[0.5,0,0],[0.75,0,0],[1,0,0],[0,1,0],[0.25,1,0],[0.5,1,0],[0.75,1,0],[1,1,0],[0,0.25,0],[0,0.5,0],[0,0.75,0],[1,0.25,0],[1,0.5,0],[1,0.75,0]];outlineConnect=0;fontColor=#232F3E;fillColor=#C925D1;strokeColor=#ffffff;dashed=0;verticalLabelPosition=bottom;verticalAlign=top;align=center;html=1;fontSize=12;fontStyle=0;aspect=fixed;shape=mxgraph.aws4.resourceIcon;resIcon=mxgraph.aws4.rds;" vertex="1" parent="4f5Nt68GjwvBEmgDLU7Z-14">
          <mxGeometry x="36" y="238" width="48" height="48" as="geometry" />
        </mxCell>
        <mxCell id="4f5Nt68GjwvBEmgDLU7Z-34" value="&lt;font style=&quot;font-size: 11px;&quot;&gt;RDS&lt;/font&gt;" style="text;html=1;align=center;verticalAlign=middle;resizable=0;points=[];autosize=1;strokeColor=none;fillColor=none;" vertex="1" parent="4f5Nt68GjwvBEmgDLU7Z-14">
          <mxGeometry x="75" y="269" width="50" height="30" as="geometry" />
        </mxCell>
        <mxCell id="4f5Nt68GjwvBEmgDLU7Z-16" value="" style="sketch=0;outlineConnect=0;fontColor=#232F3E;gradientColor=none;fillColor=#8C4FFF;strokeColor=none;dashed=0;verticalLabelPosition=bottom;verticalAlign=top;align=center;html=1;fontSize=12;fontStyle=0;aspect=fixed;pointerEvents=1;shape=mxgraph.aws4.application_load_balancer;" vertex="1" parent="1">
          <mxGeometry x="401" y="330.5" width="38" height="38" as="geometry" />
        </mxCell>
        <mxCell id="4f5Nt68GjwvBEmgDLU7Z-19" value="EC2 Worker Node -&amp;nbsp;&lt;font color=&quot;#0000ff&quot;&gt;Blue&lt;/font&gt;" style="points=[[0,0],[0.25,0],[0.5,0],[0.75,0],[1,0],[1,0.25],[1,0.5],[1,0.75],[1,1],[0.75,1],[0.5,1],[0.25,1],[0,1],[0,0.75],[0,0.5],[0,0.25]];outlineConnect=0;gradientColor=none;html=1;whiteSpace=wrap;fontSize=12;fontStyle=0;container=1;pointerEvents=0;collapsible=0;recursiveResize=0;shape=mxgraph.aws4.group;grIcon=mxgraph.aws4.group_ec2_instance_contents;strokeColor=#D86613;fillColor=none;verticalAlign=top;align=left;spacingLeft=30;fontColor=#D86613;dashed=0;" vertex="1" parent="1">
          <mxGeometry x="110" y="468" width="240" height="178" as="geometry" />
        </mxCell>
        <mxCell id="4f5Nt68GjwvBEmgDLU7Z-27" value="Deployment&amp;nbsp;" style="verticalAlign=top;align=left;shape=cube;size=10;direction=south;fontStyle=0;html=1;boundedLbl=1;spacingLeft=5;whiteSpace=wrap;fillColor=#66B2FF;" vertex="1" parent="4f5Nt68GjwvBEmgDLU7Z-19">
          <mxGeometry x="150" y="60" width="80" height="96" as="geometry" />
        </mxCell>
        <mxCell id="4f5Nt68GjwvBEmgDLU7Z-28" value="Pod" style="verticalAlign=top;align=center;shape=cube;size=10;direction=south;html=1;boundedLbl=1;spacingLeft=5;whiteSpace=wrap;fillColor=#00CC66;" vertex="1" parent="4f5Nt68GjwvBEmgDLU7Z-27">
          <mxGeometry width="50" height="60" relative="1" as="geometry">
            <mxPoint x="8" y="30" as="offset" />
          </mxGeometry>
        </mxCell>
        <mxCell id="4f5Nt68GjwvBEmgDLU7Z-29" value="" style="shape=image;html=1;verticalAlign=top;verticalLabelPosition=bottom;labelBackgroundColor=#ffffff;imageAspect=0;aspect=fixed;image=https://cdn1.iconfinder.com/data/icons/ionicons-fill-vol-2/512/logo-docker-128.png" vertex="1" parent="4f5Nt68GjwvBEmgDLU7Z-27">
          <mxGeometry x="12" y="60" width="32" height="32" as="geometry" />
        </mxCell>
        <mxCell id="4f5Nt68GjwvBEmgDLU7Z-30" value="in-clutser Svc" style="rounded=1;whiteSpace=wrap;html=1;fillColor=#FF66B3;" vertex="1" parent="4f5Nt68GjwvBEmgDLU7Z-19">
          <mxGeometry x="150" y="34" width="80" height="18" as="geometry" />
        </mxCell>
        <mxCell id="4f5Nt68GjwvBEmgDLU7Z-35" value="&lt;font style=&quot;font-size: 11px;&quot;&gt;App&lt;/font&gt;" style="text;html=1;align=center;verticalAlign=middle;resizable=0;points=[];autosize=1;strokeColor=none;fillColor=none;" vertex="1" parent="4f5Nt68GjwvBEmgDLU7Z-19">
          <mxGeometry x="64" y="148" width="40" height="30" as="geometry" />
        </mxCell>
        <mxCell id="4f5Nt68GjwvBEmgDLU7Z-42" value="" style="edgeStyle=orthogonalEdgeStyle;rounded=0;orthogonalLoop=1;jettySize=auto;html=1;entryX=0.5;entryY=0;entryDx=0;entryDy=0;entryPerimeter=0;" edge="1" parent="1" source="4f5Nt68GjwvBEmgDLU7Z-20" target="4f5Nt68GjwvBEmgDLU7Z-33">
          <mxGeometry relative="1" as="geometry" />
        </mxCell>
        <mxCell id="4f5Nt68GjwvBEmgDLU7Z-20" value="Deployment&amp;nbsp;" style="verticalAlign=top;align=left;shape=cube;size=10;direction=south;fontStyle=0;html=1;boundedLbl=1;spacingLeft=5;whiteSpace=wrap;fillColor=#66B2FF;" vertex="1" parent="1">
          <mxGeometry x="120" y="528" width="80" height="96" as="geometry" />
        </mxCell>
        <mxCell id="4f5Nt68GjwvBEmgDLU7Z-21" value="Pod" style="verticalAlign=top;align=center;shape=cube;size=10;direction=south;html=1;boundedLbl=1;spacingLeft=5;whiteSpace=wrap;fillColor=#00CC66;" vertex="1" parent="4f5Nt68GjwvBEmgDLU7Z-20">
          <mxGeometry width="50" height="60" relative="1" as="geometry">
            <mxPoint x="8" y="30" as="offset" />
          </mxGeometry>
        </mxCell>
        <mxCell id="4f5Nt68GjwvBEmgDLU7Z-23" value="" style="shape=image;html=1;verticalAlign=top;verticalLabelPosition=bottom;labelBackgroundColor=#ffffff;imageAspect=0;aspect=fixed;image=https://cdn1.iconfinder.com/data/icons/ionicons-fill-vol-2/512/logo-docker-128.png" vertex="1" parent="4f5Nt68GjwvBEmgDLU7Z-20">
          <mxGeometry x="12" y="60" width="32" height="32" as="geometry" />
        </mxCell>
        <mxCell id="4f5Nt68GjwvBEmgDLU7Z-25" value="in-clutser Svc" style="rounded=1;whiteSpace=wrap;html=1;fillColor=#FF66B3;" vertex="1" parent="1">
          <mxGeometry x="120" y="502" width="80" height="18" as="geometry" />
        </mxCell>
        <mxCell id="4f5Nt68GjwvBEmgDLU7Z-37" value="&lt;span style=&quot;font-size: 11px;&quot;&gt;DB&lt;/span&gt;" style="text;html=1;align=center;verticalAlign=middle;resizable=0;points=[];autosize=1;strokeColor=none;fillColor=none;" vertex="1" parent="1">
          <mxGeometry x="314" y="617" width="40" height="30" as="geometry" />
        </mxCell>
        <mxCell id="4f5Nt68GjwvBEmgDLU7Z-43" value="" style="edgeStyle=orthogonalEdgeStyle;rounded=0;orthogonalLoop=1;jettySize=auto;html=1;entryX=1;entryY=0.5;entryDx=0;entryDy=0;" edge="1" parent="1" source="4f5Nt68GjwvBEmgDLU7Z-12" target="4f5Nt68GjwvBEmgDLU7Z-25">
          <mxGeometry relative="1" as="geometry" />
        </mxCell>
        <mxCell id="4f5Nt68GjwvBEmgDLU7Z-47" value="" style="edgeStyle=orthogonalEdgeStyle;rounded=0;orthogonalLoop=1;jettySize=auto;html=1;entryX=0;entryY=0.5;entryDx=0;entryDy=0;" edge="1" parent="1" source="4f5Nt68GjwvBEmgDLU7Z-20" target="4f5Nt68GjwvBEmgDLU7Z-30">
          <mxGeometry relative="1" as="geometry">
            <mxPoint x="295" y="585" as="sourcePoint" />
            <mxPoint x="210" y="616" as="targetPoint" />
          </mxGeometry>
        </mxCell>
        <mxCell id="4f5Nt68GjwvBEmgDLU7Z-49" value="AZ us-east-2b" style="fillColor=none;strokeColor=#147EBA;dashed=1;verticalAlign=top;fontStyle=0;fontColor=#147EBA;whiteSpace=wrap;html=1;" vertex="1" parent="1">
          <mxGeometry x="470" y="240" width="282" height="472" as="geometry" />
        </mxCell>
        <mxCell id="4f5Nt68GjwvBEmgDLU7Z-50" value="Public subnet" style="points=[[0,0],[0.25,0],[0.5,0],[0.75,0],[1,0],[1,0.25],[1,0.5],[1,0.75],[1,1],[0.75,1],[0.5,1],[0.25,1],[0,1],[0,0.75],[0,0.5],[0,0.25]];outlineConnect=0;gradientColor=none;html=1;whiteSpace=wrap;fontSize=12;fontStyle=0;container=1;pointerEvents=0;collapsible=0;recursiveResize=0;shape=mxgraph.aws4.group;grIcon=mxgraph.aws4.group_security_group;grStroke=0;strokeColor=#7AA116;fillColor=#F2F6E8;verticalAlign=top;align=left;spacingLeft=30;fontColor=#248814;dashed=0;" vertex="1" parent="1">
          <mxGeometry x="480" y="268" width="260" height="130" as="geometry" />
        </mxCell>
        <mxCell id="4f5Nt68GjwvBEmgDLU7Z-51" value="NAT gateway" style="sketch=0;outlineConnect=0;fontColor=#232F3E;gradientColor=none;strokeColor=#232F3E;fillColor=#ffffff;dashed=0;verticalLabelPosition=bottom;verticalAlign=top;align=center;html=1;fontSize=12;fontStyle=0;aspect=fixed;shape=mxgraph.aws4.resourceIcon;resIcon=mxgraph.aws4.nat_gateway;" vertex="1" parent="4f5Nt68GjwvBEmgDLU7Z-50">
          <mxGeometry x="100" y="50" width="50" height="50" as="geometry" />
        </mxCell>
        <mxCell id="4f5Nt68GjwvBEmgDLU7Z-52" value="" style="outlineConnect=0;dashed=0;verticalLabelPosition=bottom;verticalAlign=top;align=center;html=1;shape=mxgraph.aws3.route_table;fillColor=#F58536;gradientColor=none;" vertex="1" parent="4f5Nt68GjwvBEmgDLU7Z-50">
          <mxGeometry x="210" y="56" width="40" height="38" as="geometry" />
        </mxCell>
        <mxCell id="4f5Nt68GjwvBEmgDLU7Z-54" value="Private subnet" style="points=[[0,0],[0.25,0],[0.5,0],[0.75,0],[1,0],[1,0.25],[1,0.5],[1,0.75],[1,1],[0.75,1],[0.5,1],[0.25,1],[0,1],[0,0.75],[0,0.5],[0,0.25]];outlineConnect=0;gradientColor=none;html=1;whiteSpace=wrap;fontSize=12;fontStyle=0;container=1;pointerEvents=0;collapsible=0;recursiveResize=0;shape=mxgraph.aws4.group;grIcon=mxgraph.aws4.group_security_group;grStroke=0;strokeColor=#00A4A6;fillColor=#E6F6F7;verticalAlign=top;align=left;spacingLeft=30;fontColor=#147EBA;dashed=0;" vertex="1" parent="1">
          <mxGeometry x="480" y="420" width="260" height="290" as="geometry" />
        </mxCell>
        <mxCell id="4f5Nt68GjwvBEmgDLU7Z-55" value="" style="outlineConnect=0;dashed=0;verticalLabelPosition=bottom;verticalAlign=top;align=center;html=1;shape=mxgraph.aws3.route_table;fillColor=#F58536;gradientColor=none;" vertex="1" parent="4f5Nt68GjwvBEmgDLU7Z-54">
          <mxGeometry x="210" width="40" height="38" as="geometry" />
        </mxCell>
        <mxCell id="4f5Nt68GjwvBEmgDLU7Z-56" value="" style="sketch=0;points=[[0,0,0],[0.25,0,0],[0.5,0,0],[0.75,0,0],[1,0,0],[0,1,0],[0.25,1,0],[0.5,1,0],[0.75,1,0],[1,1,0],[0,0.25,0],[0,0.5,0],[0,0.75,0],[1,0.25,0],[1,0.5,0],[1,0.75,0]];outlineConnect=0;fontColor=#232F3E;fillColor=#C925D1;strokeColor=#ffffff;dashed=0;verticalLabelPosition=bottom;verticalAlign=top;align=center;html=1;fontSize=12;fontStyle=0;aspect=fixed;shape=mxgraph.aws4.resourceIcon;resIcon=mxgraph.aws4.rds;" vertex="1" parent="4f5Nt68GjwvBEmgDLU7Z-54">
          <mxGeometry x="36" y="238" width="48" height="48" as="geometry" />
        </mxCell>
        <mxCell id="4f5Nt68GjwvBEmgDLU7Z-57" value="&lt;font style=&quot;font-size: 11px;&quot;&gt;RDS&lt;/font&gt;" style="text;html=1;align=center;verticalAlign=middle;resizable=0;points=[];autosize=1;strokeColor=none;fillColor=none;" vertex="1" parent="4f5Nt68GjwvBEmgDLU7Z-54">
          <mxGeometry x="73" y="269" width="50" height="30" as="geometry" />
        </mxCell>
        <mxCell id="4f5Nt68GjwvBEmgDLU7Z-58" value="EC2 Worker Node -&amp;nbsp;&lt;font color=&quot;#009900&quot;&gt;Green&lt;/font&gt;" style="points=[[0,0],[0.25,0],[0.5,0],[0.75,0],[1,0],[1,0.25],[1,0.5],[1,0.75],[1,1],[0.75,1],[0.5,1],[0.25,1],[0,1],[0,0.75],[0,0.5],[0,0.25]];outlineConnect=0;gradientColor=none;html=1;whiteSpace=wrap;fontSize=12;fontStyle=0;container=1;pointerEvents=0;collapsible=0;recursiveResize=0;shape=mxgraph.aws4.group;grIcon=mxgraph.aws4.group_ec2_instance_contents;strokeColor=#D86613;fillColor=none;verticalAlign=top;align=left;spacingLeft=30;fontColor=#D86613;dashed=0;" vertex="1" parent="1">
          <mxGeometry x="490" y="468" width="240" height="178" as="geometry" />
        </mxCell>
        <mxCell id="4f5Nt68GjwvBEmgDLU7Z-59" value="Deployment&amp;nbsp;" style="verticalAlign=top;align=left;shape=cube;size=10;direction=south;fontStyle=0;html=1;boundedLbl=1;spacingLeft=5;whiteSpace=wrap;fillColor=#66B2FF;" vertex="1" parent="4f5Nt68GjwvBEmgDLU7Z-58">
          <mxGeometry x="150" y="60" width="80" height="96" as="geometry" />
        </mxCell>
        <mxCell id="4f5Nt68GjwvBEmgDLU7Z-60" value="Pod" style="verticalAlign=top;align=center;shape=cube;size=10;direction=south;html=1;boundedLbl=1;spacingLeft=5;whiteSpace=wrap;fillColor=#00CC66;" vertex="1" parent="4f5Nt68GjwvBEmgDLU7Z-59">
          <mxGeometry width="50" height="60" relative="1" as="geometry">
            <mxPoint x="8" y="30" as="offset" />
          </mxGeometry>
        </mxCell>
        <mxCell id="4f5Nt68GjwvBEmgDLU7Z-61" value="" style="shape=image;html=1;verticalAlign=top;verticalLabelPosition=bottom;labelBackgroundColor=#ffffff;imageAspect=0;aspect=fixed;image=https://cdn1.iconfinder.com/data/icons/ionicons-fill-vol-2/512/logo-docker-128.png" vertex="1" parent="4f5Nt68GjwvBEmgDLU7Z-59">
          <mxGeometry x="12" y="60" width="32" height="32" as="geometry" />
        </mxCell>
        <mxCell id="4f5Nt68GjwvBEmgDLU7Z-62" value="in-clutser Svc" style="rounded=1;whiteSpace=wrap;html=1;fillColor=#FF66B3;" vertex="1" parent="4f5Nt68GjwvBEmgDLU7Z-58">
          <mxGeometry x="150" y="34" width="80" height="18" as="geometry" />
        </mxCell>
        <mxCell id="4f5Nt68GjwvBEmgDLU7Z-63" value="&lt;font style=&quot;font-size: 11px;&quot;&gt;App&lt;/font&gt;" style="text;html=1;align=center;verticalAlign=middle;resizable=0;points=[];autosize=1;strokeColor=none;fillColor=none;" vertex="1" parent="4f5Nt68GjwvBEmgDLU7Z-58">
          <mxGeometry x="64" y="148" width="40" height="30" as="geometry" />
        </mxCell>
        <mxCell id="4f5Nt68GjwvBEmgDLU7Z-64" value="" style="edgeStyle=orthogonalEdgeStyle;rounded=0;orthogonalLoop=1;jettySize=auto;html=1;entryX=0.5;entryY=0;entryDx=0;entryDy=0;entryPerimeter=0;" edge="1" parent="1" source="4f5Nt68GjwvBEmgDLU7Z-65" target="4f5Nt68GjwvBEmgDLU7Z-56">
          <mxGeometry relative="1" as="geometry" />
        </mxCell>
        <mxCell id="4f5Nt68GjwvBEmgDLU7Z-65" value="Deployment&amp;nbsp;" style="verticalAlign=top;align=left;shape=cube;size=10;direction=south;fontStyle=0;html=1;boundedLbl=1;spacingLeft=5;whiteSpace=wrap;fillColor=#66B2FF;" vertex="1" parent="1">
          <mxGeometry x="500" y="528" width="80" height="96" as="geometry" />
        </mxCell>
        <mxCell id="4f5Nt68GjwvBEmgDLU7Z-66" value="Pod" style="verticalAlign=top;align=center;shape=cube;size=10;direction=south;html=1;boundedLbl=1;spacingLeft=5;whiteSpace=wrap;fillColor=#00CC66;" vertex="1" parent="4f5Nt68GjwvBEmgDLU7Z-65">
          <mxGeometry width="50" height="60" relative="1" as="geometry">
            <mxPoint x="8" y="30" as="offset" />
          </mxGeometry>
        </mxCell>
        <mxCell id="4f5Nt68GjwvBEmgDLU7Z-67" value="" style="shape=image;html=1;verticalAlign=top;verticalLabelPosition=bottom;labelBackgroundColor=#ffffff;imageAspect=0;aspect=fixed;image=https://cdn1.iconfinder.com/data/icons/ionicons-fill-vol-2/512/logo-docker-128.png" vertex="1" parent="4f5Nt68GjwvBEmgDLU7Z-65">
          <mxGeometry x="12" y="60" width="32" height="32" as="geometry" />
        </mxCell>
        <mxCell id="4f5Nt68GjwvBEmgDLU7Z-68" value="in-clutser Svc" style="rounded=1;whiteSpace=wrap;html=1;fillColor=#FF66B3;" vertex="1" parent="1">
          <mxGeometry x="500" y="502" width="80" height="18" as="geometry" />
        </mxCell>
        <mxCell id="4f5Nt68GjwvBEmgDLU7Z-69" value="&lt;span style=&quot;font-size: 11px;&quot;&gt;DB&lt;/span&gt;" style="text;html=1;align=center;verticalAlign=middle;resizable=0;points=[];autosize=1;strokeColor=none;fillColor=none;" vertex="1" parent="1">
          <mxGeometry x="694" y="617" width="40" height="30" as="geometry" />
        </mxCell>
        <mxCell id="4f5Nt68GjwvBEmgDLU7Z-70" value="" style="edgeStyle=orthogonalEdgeStyle;rounded=0;orthogonalLoop=1;jettySize=auto;html=1;entryX=1;entryY=0.5;entryDx=0;entryDy=0;" edge="1" parent="1" source="4f5Nt68GjwvBEmgDLU7Z-51" target="4f5Nt68GjwvBEmgDLU7Z-68">
          <mxGeometry relative="1" as="geometry" />
        </mxCell>
        <mxCell id="4f5Nt68GjwvBEmgDLU7Z-71" value="" style="edgeStyle=orthogonalEdgeStyle;rounded=0;orthogonalLoop=1;jettySize=auto;html=1;entryX=0;entryY=0.5;entryDx=0;entryDy=0;" edge="1" parent="1" source="4f5Nt68GjwvBEmgDLU7Z-65" target="4f5Nt68GjwvBEmgDLU7Z-62">
          <mxGeometry relative="1" as="geometry">
            <mxPoint x="675" y="585" as="sourcePoint" />
            <mxPoint x="590" y="616" as="targetPoint" />
          </mxGeometry>
        </mxCell>
        <mxCell id="4f5Nt68GjwvBEmgDLU7Z-72" value="" style="rounded=0;whiteSpace=wrap;html=1;dashed=1;gradientColor=none;opacity=10;perimeterSpacing=5;strokeWidth=6;strokeColor=#000000;" vertex="1" parent="1">
          <mxGeometry x="103" y="460" width="637" height="190" as="geometry" />
        </mxCell>
        <mxCell id="4f5Nt68GjwvBEmgDLU7Z-75" value="&lt;b&gt;&lt;font color=&quot;#808080&quot;&gt;EKS private node groups&lt;/font&gt;&lt;/b&gt;" style="text;html=1;align=center;verticalAlign=middle;resizable=0;points=[];autosize=1;strokeColor=none;fillColor=none;" vertex="1" parent="1">
          <mxGeometry x="330" y="650" width="170" height="30" as="geometry" />
        </mxCell>
        <mxCell id="4f5Nt68GjwvBEmgDLU7Z-76" value="" style="rounded=0;whiteSpace=wrap;html=1;opacity=15;strokeWidth=3;strokeColor=#FF0000;" vertex="1" parent="1">
          <mxGeometry x="270" y="309" width="290" height="81" as="geometry" />
        </mxCell>
        <mxCell id="4f5Nt68GjwvBEmgDLU7Z-77" value="&lt;b&gt;&lt;font style=&quot;font-size: 11px;&quot; color=&quot;#ff0000&quot;&gt;Ingress Controller&lt;/font&gt;&lt;br&gt;&lt;/b&gt;" style="text;html=1;align=center;verticalAlign=middle;resizable=0;points=[];autosize=1;strokeColor=none;fillColor=none;" vertex="1" parent="1">
          <mxGeometry x="276" y="360" width="120" height="30" as="geometry" />
        </mxCell>
        <mxCell id="4f5Nt68GjwvBEmgDLU7Z-78" value="&lt;font style=&quot;font-size: 11px;&quot;&gt;ALB&lt;/font&gt;" style="text;html=1;align=center;verticalAlign=middle;resizable=0;points=[];autosize=1;strokeColor=none;fillColor=none;" vertex="1" parent="1">
          <mxGeometry x="435" y="338.5" width="40" height="30" as="geometry" />
        </mxCell>
        <mxCell id="4f5Nt68GjwvBEmgDLU7Z-84" style="edgeStyle=orthogonalEdgeStyle;rounded=0;orthogonalLoop=1;jettySize=auto;html=1;" edge="1" parent="1" source="4f5Nt68GjwvBEmgDLU7Z-5" target="4f5Nt68GjwvBEmgDLU7Z-12">
          <mxGeometry relative="1" as="geometry" />
        </mxCell>
        <mxCell id="4f5Nt68GjwvBEmgDLU7Z-85" style="edgeStyle=orthogonalEdgeStyle;rounded=0;orthogonalLoop=1;jettySize=auto;html=1;" edge="1" parent="1" source="4f5Nt68GjwvBEmgDLU7Z-5" target="4f5Nt68GjwvBEmgDLU7Z-51">
          <mxGeometry relative="1" as="geometry">
            <mxPoint x="475" y="196" as="sourcePoint" />
          </mxGeometry>
        </mxCell>
        <mxCell id="4f5Nt68GjwvBEmgDLU7Z-86" value="&lt;font style=&quot;font-size: 11px;&quot;&gt;IGW&lt;br&gt;&lt;/font&gt;" style="text;html=1;align=center;verticalAlign=middle;resizable=0;points=[];autosize=1;strokeColor=none;fillColor=none;" vertex="1" parent="1">
          <mxGeometry x="419" y="196" width="50" height="30" as="geometry" />
        </mxCell>
      </root>
    </mxGraphModel>
  </diagram>
</mxfile>
